Simulation
nRows=27
nColumns=15
endheader
time  TH_x TH_y TH_z SC_y  SC_z  SC_x  AC_y  AC_z  AC_x  GH_y  GH_z  GH_yy  EL_x  PS_y
1.4  0.000000  0.000000  0.000000  -43.97616382452132  10.433665831491005  26.418489960966532  69.08826750038828  11.300669671653646  -1.1602126058209945  -24.165280301671075  60.862834890632854  27.361253951555874  6.4152536153845565  120.000000
1.428  0.000000  0.000000  0.000000  -44.166120307078145  10.598242176340687  26.896871773929345  69.1305305474448  11.157946692714713  -0.9884468484541595  -24.097314138722407  61.05201833726418  27.3539481786604  6.389617038907963  120.000000
1.456  0.000000  0.000000  0.000000  -44.31336144139835  10.73447169855618  27.314134188112362  69.17129796526244  11.006806934229024  -0.8517730875789437  -24.047958374722988  61.18361767728463  27.348231323098492  6.388820834472647  120.000000
1.4839999999999998  0.000000  0.000000  0.000000  -44.41979778217397  10.842454982597866  27.66880679032935  69.2093800705173  10.849218074726853  -0.7526036810903237  -24.014120309545653  61.26372923324558  27.347285748473794  6.40378514889138  120.000000
1.5119999999999998  0.000000  0.000000  0.000000  -44.48642410145423  10.921931601630428  27.959697612919225  69.2436891552751  10.688126791132174  -0.6922852148781254  -23.992862277289863  61.29882089789697  27.35228141423266  6.4266746742131575  120.000000
1.5399999999999998  0.000000  0.000000  0.000000  -44.51678714086512  10.973202374483357  28.1889905685264  69.27351226819506  10.526763200980604  -0.6708736735453774  -23.981338000918697  61.29511364912639  27.36242459966145  6.451554709780746  120.000000
1.5679999999999998  0.000000  0.000000  0.000000  -44.513151500101685  10.996268651297495  28.35884342793311  69.29836931537362  10.368929895352386  -0.6875014348749596  -23.97713180174758  61.25868844904375  27.375202280980968  6.474240095009379  120.000000
1.5959999999999999  0.000000  0.000000  0.000000  -44.47993027394853  10.991837223377377  28.47439797194578  69.31808470100087  10.21778946779292  -0.7403524538676829  -23.97800949542649  61.19461386631222  27.387401976825007  6.492052296586734  120.000000
1.6239999999999999  0.000000  0.000000  0.000000  -44.419878578311796  10.960476457814197  28.539676757997967  69.33262872876035  10.076277883615301  -0.827188188433079  -23.98206692937205  61.10712739138549  27.3957563118816  6.5034846637282  120.000000
1.652  0.000000  0.000000  0.000000  -44.33740140751344  10.903620364578758  28.560672685493362  69.3420997878243  9.946076455123684  -0.9453318813899149  -23.987618975490992  60.99875265460708  27.397903504234048  6.508118951951121  120.000000
1.6799999999999997  0.000000  0.000000  0.000000  -44.23486625441586  10.822511451729884  28.541449650248286  69.34670550739492  9.828327623799064  -1.0920692037667938  -23.99328690059335  60.8706173444819  27.39242399847858  6.5064877208354766  120.000000
1.7079999999999997  0.000000  0.000000  0.000000  -44.11568739123933  10.719129405649245  28.487158595598046  69.34680001811402  9.72296547366559  -1.2645623043584513  -23.99800733044808  60.72190019277371  27.379057453093655  6.4999026255918295  120.000000
1.7359999999999998  0.000000  0.000000  0.000000  -43.980841055156894  10.594997733161193  28.400636515534135  69.3430541530813  9.629444219393587  -1.4600144063491989  -24.001038768037734  60.55033691813929  27.35796879593487  6.490240032658712  120.000000
1.7639999999999998  0.000000  0.000000  0.000000  -43.83174622405104  10.45218038034284  28.28510102133692  69.33651277540143  9.546219956812033  -1.6754951586843192  -24.002036249023682  60.35223664966274  27.32960076267828  6.479623418746937  120.000000
1.7919999999999998  0.000000  0.000000  0.000000  -43.66720298536908  10.292237535548992  28.141211378394978  69.3287741774095  9.471217325630914  -1.9078682917800558  -24.0009980448381  60.123066369323176  27.293994249206442  6.470287030458602  120.000000
1.8199999999999998  0.000000  0.000000  0.000000  -43.48637113395932  10.117273607148476  27.969449726028152  69.32179534561843  9.401474632106872  -2.1536333625591633  -23.998368896891456  59.857761638784936  27.251090476781478  6.464303221318945  120.000000
1.8479999999999999  0.000000  0.000000  0.000000  -43.2863645954259  9.929010395665044  27.767872769298958  69.3177828320469  9.333659703401773  -2.4088930008429235  -23.99482473017527  59.550992559173125  27.200692270325515  6.46365845709406  120.000000
1.876  0.000000  0.000000  0.000000  -43.06557953027026  9.729865239786248  27.53450071020534  69.31873454820298  9.264141085792133  -2.6695055004306214  -23.991211507144  59.1973894716399  27.143396519346865  6.470140768866578  120.000000
1.904  0.000000  0.000000  0.000000  -42.82155617069129  9.521975090923885  27.26562070353956  69.32596101488606  9.189483045149553  -2.931281776219863  -23.98831214944365  58.79147160375217  27.081007893758162  6.485500981580765  120.000000
1.9319999999999997  0.000000  0.000000  0.000000  -42.554451015271624  9.308115950424767  26.95830733778883  69.33960712159643  9.106378167547716  -3.1903143218605985  -23.986631567922085  58.32788470868792  27.017474495216245  6.511434774564386  120.000000
1.9599999999999997  0.000000  0.000000  0.000000  -42.26430080783391  9.090844262982838  26.608890472568536  69.35832245429769  9.012130694614816  -3.443311135903193  -23.986347982481504  57.80143963407513  26.95875251764947  6.549664543403504  120.000000
1.9879999999999998  0.000000  0.000000  0.000000  -41.95411806117205  8.87308174109104  26.215527161825133  69.37939575539565  8.904518704037775  -3.6876175200814223  -23.987173847815765  57.20751752696274  26.9126320948739  6.601899934420316  120.000000
2.016  0.000000  0.000000  0.000000  -41.62631989661568  8.657153021783877  25.77625437072832  69.39901578591906  8.782209414079311  -3.921347651629581  -23.98880243255323  56.54218761499696  26.8873209598858  6.669750530878707  120.000000
2.0439999999999996  0.000000  0.000000  0.000000  -41.285484050479965  8.444939101513285  25.291436798433097  69.41312682124926  8.644579139194173  -4.143239522313401  -23.991004040218396  55.80248607757067  26.8902575395965  6.7546306876249  120.000000
2.0719999999999996  0.000000  0.000000  0.000000  -40.93474768958384  8.23700827817117  24.76144414241927  69.41799920985308  8.491927361795012  -4.352801675134397  -23.994100392279876  54.98637908149438  26.926413964856405  6.8577085387661425  120.000000
2.0999999999999996  0.000000  0.000000  0.000000  -40.57868123890266  8.032586659837293  24.189265200466238  69.41106916069809  8.325099151923538  -4.550219644973427  -23.99883300877611  54.09308701233053  26.99761387074244  6.97984103565836  120.000000
2.1279999999999997  0.000000  0.000000  0.000000  -40.220052617826155  7.829571059469346  23.577893541718307  69.3910722298508  8.145482172775194  -4.736448387683789  -24.00633152879174  53.123122089808085  27.10236007834629  7.121586223858571  120.000000
